<mxfile host="app.diagrams.net" modified="2021-01-16T11:43:27.736Z" agent="5.0 (Windows NT 10.0; Win64; x64) AppleWebKit/537.36 (KHTML, like Gecko) Chrome/87.0.4280.141 Safari/537.36 Edg/87.0.664.75" etag="8NqkVaj9k_RgxN7wvqma" version="14.2.3" type="github">
  <diagram id="aO4bp_PoEJEW-m8jPT9s" name="第 1 页">
    <mxGraphModel dx="1355" dy="802" grid="1" gridSize="10" guides="1" tooltips="1" connect="1" arrows="1" fold="1" page="1" pageScale="1" pageWidth="827" pageHeight="1169" math="0" shadow="0">
      <root>
        <mxCell id="0" />
        <mxCell id="1" parent="0" />
        <mxCell id="zcbsbo74vB5G5CX4on4j-18" value="list" style="edgeStyle=orthogonalEdgeStyle;rounded=0;orthogonalLoop=1;jettySize=auto;html=1;exitX=0.5;exitY=1;exitDx=0;exitDy=0;endArrow=open;endFill=0;" edge="1" parent="1" source="zcbsbo74vB5G5CX4on4j-1" target="zcbsbo74vB5G5CX4on4j-19">
          <mxGeometry relative="1" as="geometry">
            <mxPoint x="389" y="470" as="targetPoint" />
            <Array as="points">
              <mxPoint x="364" y="423" />
              <mxPoint x="220" y="423" />
            </Array>
          </mxGeometry>
        </mxCell>
        <mxCell id="zcbsbo74vB5G5CX4on4j-23" value="login or no need" style="edgeStyle=orthogonalEdgeStyle;rounded=0;orthogonalLoop=1;jettySize=auto;html=1;exitX=0.75;exitY=1;exitDx=0;exitDy=0;entryX=0.5;entryY=0;entryDx=0;entryDy=0;endArrow=open;endFill=0;" edge="1" parent="1" source="zcbsbo74vB5G5CX4on4j-1" target="zcbsbo74vB5G5CX4on4j-20">
          <mxGeometry x="0.0385" y="21" relative="1" as="geometry">
            <mxPoint as="offset" />
          </mxGeometry>
        </mxCell>
        <mxCell id="zcbsbo74vB5G5CX4on4j-1" value="Vercel" style="rounded=0;whiteSpace=wrap;html=1;sketch=0;fontSize=16;" vertex="1" parent="1">
          <mxGeometry x="314" y="340" width="100" height="36" as="geometry" />
        </mxCell>
        <mxCell id="zcbsbo74vB5G5CX4on4j-3" value="" style="endArrow=none;dashed=1;html=1;dashPattern=1 3;strokeWidth=2;" edge="1" parent="1">
          <mxGeometry width="50" height="50" relative="1" as="geometry">
            <mxPoint x="150" y="310" as="sourcePoint" />
            <mxPoint x="630" y="310" as="targetPoint" />
          </mxGeometry>
        </mxCell>
        <mxCell id="zcbsbo74vB5G5CX4on4j-7" value="deploy" style="edgeStyle=orthogonalEdgeStyle;rounded=0;orthogonalLoop=1;jettySize=auto;html=1;exitX=0.5;exitY=1;exitDx=0;exitDy=0;entryX=0;entryY=0.5;entryDx=0;entryDy=0;endArrow=open;endFill=0;" edge="1" parent="1" source="zcbsbo74vB5G5CX4on4j-4" target="zcbsbo74vB5G5CX4on4j-1">
          <mxGeometry relative="1" as="geometry" />
        </mxCell>
        <mxCell id="zcbsbo74vB5G5CX4on4j-4" value="GitHub" style="rounded=0;whiteSpace=wrap;html=1;sketch=0;fontSize=16;" vertex="1" parent="1">
          <mxGeometry x="160" y="240" width="100" height="36" as="geometry" />
        </mxCell>
        <mxCell id="zcbsbo74vB5G5CX4on4j-11" value="add model" style="edgeStyle=orthogonalEdgeStyle;rounded=0;orthogonalLoop=1;jettySize=auto;html=1;endArrow=open;endFill=0;" edge="1" parent="1" source="zcbsbo74vB5G5CX4on4j-5" target="zcbsbo74vB5G5CX4on4j-4">
          <mxGeometry relative="1" as="geometry" />
        </mxCell>
        <mxCell id="zcbsbo74vB5G5CX4on4j-5" value="API" style="shape=umlActor;verticalLabelPosition=bottom;verticalAlign=top;html=1;outlineConnect=0;" vertex="1" parent="1">
          <mxGeometry x="349" y="228" width="30" height="60" as="geometry" />
        </mxCell>
        <mxCell id="zcbsbo74vB5G5CX4on4j-6" value="push" style="endArrow=open;html=1;entryX=0.5;entryY=0;entryDx=0;entryDy=0;endFill=0;" edge="1" parent="1" target="zcbsbo74vB5G5CX4on4j-4">
          <mxGeometry width="50" height="50" relative="1" as="geometry">
            <mxPoint x="210" y="140" as="sourcePoint" />
            <mxPoint x="440" y="260" as="targetPoint" />
          </mxGeometry>
        </mxCell>
        <mxCell id="zcbsbo74vB5G5CX4on4j-10" value="" style="edgeStyle=orthogonalEdgeStyle;rounded=0;orthogonalLoop=1;jettySize=auto;html=1;endArrow=open;endFill=0;" edge="1" parent="1" source="zcbsbo74vB5G5CX4on4j-8" target="zcbsbo74vB5G5CX4on4j-1">
          <mxGeometry relative="1" as="geometry" />
        </mxCell>
        <mxCell id="zcbsbo74vB5G5CX4on4j-8" value="Secret DB" style="rounded=0;whiteSpace=wrap;html=1;sketch=0;fontSize=16;" vertex="1" parent="1">
          <mxGeometry x="530" y="340" width="100" height="36" as="geometry" />
        </mxCell>
        <mxCell id="zcbsbo74vB5G5CX4on4j-9" value="" style="endArrow=none;dashed=1;html=1;dashPattern=1 3;strokeWidth=2;" edge="1" parent="1">
          <mxGeometry width="50" height="50" relative="1" as="geometry">
            <mxPoint x="480" y="320" as="sourcePoint" />
            <mxPoint x="480" y="450" as="targetPoint" />
          </mxGeometry>
        </mxCell>
        <mxCell id="zcbsbo74vB5G5CX4on4j-16" style="edgeStyle=orthogonalEdgeStyle;rounded=0;orthogonalLoop=1;jettySize=auto;html=1;exitX=0;exitY=0.75;exitDx=0;exitDy=0;entryX=0.25;entryY=1;entryDx=0;entryDy=0;endArrow=open;endFill=0;" edge="1" parent="1" source="zcbsbo74vB5G5CX4on4j-12" target="zcbsbo74vB5G5CX4on4j-1">
          <mxGeometry relative="1" as="geometry">
            <Array as="points">
              <mxPoint x="90" y="115" />
              <mxPoint x="90" y="410" />
              <mxPoint x="339" y="410" />
            </Array>
          </mxGeometry>
        </mxCell>
        <mxCell id="zcbsbo74vB5G5CX4on4j-12" value="" style="shape=actor;whiteSpace=wrap;html=1;" vertex="1" parent="1">
          <mxGeometry x="190" y="70" width="40" height="60" as="geometry" />
        </mxCell>
        <mxCell id="zcbsbo74vB5G5CX4on4j-14" value="" style="edgeStyle=orthogonalEdgeStyle;rounded=0;orthogonalLoop=1;jettySize=auto;html=1;endArrow=open;endFill=0;" edge="1" parent="1" source="zcbsbo74vB5G5CX4on4j-13" target="zcbsbo74vB5G5CX4on4j-5">
          <mxGeometry relative="1" as="geometry" />
        </mxCell>
        <mxCell id="zcbsbo74vB5G5CX4on4j-13" value="Azure/Google" style="ellipse;shape=cloud;whiteSpace=wrap;html=1;" vertex="1" parent="1">
          <mxGeometry x="470" y="218" width="120" height="80" as="geometry" />
        </mxCell>
        <mxCell id="zcbsbo74vB5G5CX4on4j-17" value="API&lt;br&gt;Secret" style="rounded=1;whiteSpace=wrap;html=1;" vertex="1" parent="1">
          <mxGeometry x="30" y="238" width="50" height="60" as="geometry" />
        </mxCell>
        <mxCell id="zcbsbo74vB5G5CX4on4j-19" value="Service Catagory" style="shape=document;whiteSpace=wrap;html=1;boundedLbl=1;" vertex="1" parent="1">
          <mxGeometry x="160" y="470" width="120" height="80" as="geometry" />
        </mxCell>
        <mxCell id="zcbsbo74vB5G5CX4on4j-24" value="Request" style="edgeStyle=orthogonalEdgeStyle;rounded=0;orthogonalLoop=1;jettySize=auto;html=1;endArrow=open;endFill=0;" edge="1" parent="1" source="zcbsbo74vB5G5CX4on4j-20" target="zcbsbo74vB5G5CX4on4j-19">
          <mxGeometry relative="1" as="geometry" />
        </mxCell>
        <mxCell id="zcbsbo74vB5G5CX4on4j-20" value="" style="shape=actor;whiteSpace=wrap;html=1;" vertex="1" parent="1">
          <mxGeometry x="369" y="480" width="40" height="60" as="geometry" />
        </mxCell>
      </root>
    </mxGraphModel>
  </diagram>
</mxfile>
